<svg viewBox="0 0 1500 1000" height="1000" width="1500" xmlns="http://www.w3.org/2000/svg" version="1.1"><g transform-origin="center" transform="scale(1, 1) rotate(0)"><rect x="0" y="0" width="1500" height="1000" fill="#343434"></rect><linearGradient id="linear-gradient-r2"><stop offset="0%" stop-color="#ff5050ff" stop-opacity="100%"></stop><stop offset="100%" stop-color="#ff0092ff" stop-opacity="100%"></stop></linearGradient><filter id="shadow-r2" x="0" width="100%" y="-20%" height="150%"><feDropShadow dx="-18" dy="-5" stdDeviation="9" flood-color="#00000061"></feDropShadow></filter><path d="M0 0 0,670.3017485095188 C 14.25,670.0708173321405 46.5,665.967777431182 75,669.0863212601593 C 103.5,672.2048650891365 121.5,687.2165779227081 150,686.7151370830834 C 178.5,686.2136962434587 196.5,672.9990741280373 225,666.4471589463452 C 253.5,659.8952437646532 271.5,663.396928233467 300,652.2313729689146 C 328.5,641.0658177043622 346.5,613.764712340602 375,607.6810786065956 C 403.5,601.5974448725892 421.5,617.1325834703321 450,620.2122480530912 C 478.5,623.2919126358504 496.5,618.1973649063148 525,623.8898395684859 C 553.5,629.582314230657 571.5,645.0209104621628 600,650.1726410118863 C 628.5,655.3243715616098 646.5,654.525460965326 675,651.0042108828202 C 703.5,647.4829608003143 721.5,630.7384329490209 750,631.6397458408028 C 778.5,632.5410587325847 796.5,653.1164705594691 825,655.7479629448304 C 853.5,658.3794553301917 871.5,650.89871963365 900,645.4897057637572 C 928.5,640.0806918938645 946.5,624.2588719084548 975,627.279468892763 C 1003.5,630.3000658770712 1021.5,654.1536088432496 1050,661.3875846285373 C 1078.5,668.621560413825 1096.5,669.1935993305098 1125,665.3530256574353 C 1153.5,661.5124519843608 1171.5,651.3604190455594 1200,641.174038980777 C 1228.5,630.9876589159946 1246.5,605.903910835258 1275,611.7404990006859 C 1303.5,617.5770871661138 1321.5,665.7385567568864 1350,671.8929240619764 C 1378.5,678.0472913670665 1396.5,646.2847962347946 1425,644.1319058695808 C 1453.5,641.979015504367 1485.75,657.4402190484573 1500,660.5619221397986 L1500 1000 L0 1000Z" fill="none" stroke-linecap="round" stroke-width="1" style="transition: all 0.4s cubic-bezier(0.16, 1, 0.3, 1) 0s; fill: url(&quot;#linear-gradient-r2&quot;);" filter="url(#shadow-r2)"></path><path d="M0 0 0,775.1107690906152 C 14.25,778.9910070595164 46.5,796.113974116614 75,795.533074190095 C 103.5,794.952174263576 121.5,779.6435427975571 150,772.0534010563046 C 178.5,764.463259315052 196.5,768.519826092001 225,755.5849597624504 C 253.5,742.6500934328997 271.5,711.0228129114975 300,703.9751572165638 C 328.5,696.9275015216302 346.5,714.9243620817848 375,718.4920350522734 C 403.5,722.059708022762 421.5,716.1578704222385 450,722.7523833770305 C 478.5,729.3468963318224 496.5,747.2319162738594 525,753.1999979722314 C 553.5,759.1680796706034 571.5,758.2425724721393 600,754.1633396842517 C 628.5,750.0841068963641 646.5,730.6862154009425 675,731.7303517201915 C 703.5,732.7744880394405 721.5,756.6103112788927 750,759.6587939960882 C 778.5,762.7072767132837 796.5,754.0411321294439 825,747.774997600168 C 853.5,741.5088630708922 871.5,723.1798931493331 900,726.6791385788471 C 928.5,730.178384008361 946.5,757.8117960907184 975,766.1920788081363 C 1003.5,774.5723615255542 1021.5,775.2350466090367 1050,770.785889723152 C 1078.5,766.3367328372673 1096.5,754.5759931404712 1125,742.7754636192694 C 1153.5,730.9749340980677 1171.5,701.9163767060759 1200,708.6778396115639 C 1228.5,715.4393025170518 1246.5,771.2325126737469 1275,778.3621104902588 C 1303.5,785.4917083067708 1321.5,748.696079330462 1350,746.2020386458374 C 1378.5,743.7079979612129 1396.5,771.7131903553428 1425,765.235580571182 C 1453.5,758.7579707870212 1485.75,722.2033383212835 1500,712.1093555713072 L1500 1000 L0 1000Z" fill="none" stroke-linecap="round" stroke-width="1" style="transition: all 0.4s cubic-bezier(0.16, 1, 0.3, 1) 0s; fill: url(&quot;#linear-gradient-r2&quot;);" filter="url(#shadow-r2)"></path></g></svg>